<svg width="322" height="322" viewBox="0 0 322 322" fill="none" xmlns="http://www.w3.org/2000/svg">
    <path style="mix-blend-mode:multiply" opacity="0.5"
          d="M139.984 321.749C174.902 321.749 203.209 315.447 203.209 307.672C203.209 299.898 174.902 293.596 139.984 293.596C105.066 293.596 76.7588 299.898 76.7588 307.672C76.7588 315.447 105.066 321.749 139.984 321.749Z"
          fill="url(#paint0_radial_4_291)"/>
    <path d="M42.8676 259.272C55.7823 280.604 163.969 274.775 204.449 255.009C244.93 235.243 241.659 94.5382 222.449 69.1445C203.24 43.7507 89.3483 1.64477 39.2241 29.209C-10.9001 56.7731 25.6892 230.933 42.8676 259.272Z"
          fill="white" fill-opacity="0.2"/>
    <path d="M179.131 20.5273C179.24 10.1094 209.085 -2.94407 222.542 0.590598C235.999 4.12526 238.139 50.6495 217.581 52.1998C197.023 53.7501 178.991 33.5343 179.131 20.5273Z"
          fill="white" fill-opacity="0.2"/>
    <path d="M0.293506 248.095C-2.26464 237.057 12.5261 222.825 20.3246 224.84C28.1231 226.856 36.9603 263.597 25.0843 264.497C13.2083 265.396 1.96793 255.396 0.293506 248.095Z"
          fill="white" fill-opacity="0.2"/>
    <path d="M151.208 252.048C151.208 252.048 184.03 266.249 190.108 260.512C196.619 254.311 174.604 225.352 167.472 225.352C156.945 225.352 150.061 247.769 151.208 252.048Z"
          fill="url(#paint1_linear_4_291)"/>
    <path style="mix-blend-mode:multiply" opacity="0.3"
          d="M172.852 228.933C172.852 228.933 162.774 237.01 163.999 244.203C165.224 251.397 182.247 261.706 182.247 261.706C172.628 259.667 163.175 256.91 153.968 253.459L171.022 228.142L172.852 228.933Z"
          fill="url(#paint2_linear_4_291)"/>
    <path d="M160.263 130.924C177.741 122.613 193.646 111.336 207.271 97.5923C207.271 97.5923 214.015 104.832 208.728 121.234C208.728 121.234 168.775 164.038 146.17 166.844C123.565 169.65 131.999 138.349 131.999 138.349C131.999 138.349 150.961 137.435 160.263 130.924Z"
          fill="url(#paint3_linear_4_291)"/>
    <path d="M115.301 31.1003C115.301 31.1003 130.449 35.038 142.604 52.1843C154.759 69.3305 118.046 56.5406 118.046 56.5406L115.301 31.1003Z"
          fill="url(#paint4_linear_4_291)"/>
    <path d="M133.379 46.8824C133.379 46.8824 115.534 27.5347 105.813 27.1472C96.0923 26.7596 86.4799 38.6348 86.4799 38.6348L133.379 46.8824Z"
          fill="url(#paint5_linear_4_291)"/>
    <path d="M60.4022 163.929C91.038 178.549 169.984 134.474 175.534 114.18C177.63 105.974 177.187 97.3249 174.263 89.3758C162.092 54.1996 109.596 23.4419 67.1309 43.7817C38.3712 57.5638 29.813 93.8406 35.2859 123.42C38.6657 141.915 47.5495 157.79 60.4022 163.929Z"
          fill="url(#paint6_linear_4_291)"/>
    <path d="M82.7434 166.255C96.1823 164.03 109.301 160.183 121.813 154.798C141.069 146.039 153.953 137.59 160.294 130.955C164.48 126.598 165.829 123.048 164.341 120.707C163.426 119.281 159.038 119.668 152.589 121.265C133.674 126.04 97.0535 141.419 78.8985 153.294C77.3481 154.302 75.9062 155.294 74.6504 156.255C74.3713 156.457 74.1232 156.658 73.8752 156.86L73.7201 156.968C70.7279 159.309 68.8054 161.418 68.3093 163.17C68.1791 163.559 68.1367 163.972 68.1852 164.379C68.5728 167.154 74.5573 167.417 82.7434 166.255Z"
          fill="url(#paint7_linear_4_291)"/>
    <path style="mix-blend-mode:multiply" opacity="0.3"
          d="M60.4024 163.929C91.0382 178.549 169.984 134.474 175.535 114.181C177.63 105.974 177.187 97.325 174.263 89.3759C174.263 89.3759 173.643 102.584 157.907 112.165C142.17 121.746 92.5266 141.342 79.3638 138.52C66.2009 135.699 54.8365 100.631 54.8365 100.631L35.2706 123.42C38.666 141.915 47.5497 157.79 60.4024 163.929Z"
          fill="url(#paint8_linear_4_291)"/>
    <path style="mix-blend-mode:multiply" opacity="0.5"
          d="M82.7434 166.255C89.4101 158.875 109.41 138.52 130.806 134.086C157.054 128.614 160.263 130.986 160.263 130.986C164.449 126.629 165.798 123.079 164.31 120.738C163.395 119.312 159.007 119.7 152.558 121.296C133.643 126.071 97.0225 141.45 78.8674 153.325C76.9914 154.612 75.317 155.806 73.8441 156.891L73.6891 157C70.6969 159.341 68.7744 161.449 68.2782 163.201C68.148 163.59 68.1057 164.003 68.1542 164.41C68.5728 167.154 74.5573 167.418 82.7434 166.255Z"
          fill="url(#paint9_linear_4_291)"/>
    <path d="M74.6036 156.224C81.1308 158.503 104.666 152.364 117.1 146.706C139.395 136.551 151.348 126.893 152.557 121.234C132.015 126.412 90.5727 144.21 74.6036 156.224Z"
          fill="url(#paint10_linear_4_291)"/>
    <path d="M175.162 90.8331C176.294 102.569 107.255 138.381 81.0998 128.831C54.9447 119.281 45.0687 52.3549 84.9137 40.7587C122.914 29.7051 173.1 69.5476 175.162 90.8331Z"
          fill="#DFFBF8"/>
    <path d="M174.217 89.3759C175.348 101.112 106.309 136.923 80.1699 127.389C54.0302 117.855 44.1233 50.9131 83.9838 39.3169C121.999 28.2789 172.201 68.0903 174.217 89.3759Z"
          fill="url(#paint11_linear_4_291)"/>
    <path d="M49.2702 64.8193C49.2702 64.8193 66.7741 99.0342 49.5492 120.041C49.5492 120.041 39.1771 125.312 30.4019 121.141C30.4019 121.141 43.6888 126.614 50.3709 113.111C57.0531 99.6078 44.5105 74.1365 33.3166 68.5245C22.1228 62.9124 11.7507 69.4701 11.7507 69.4701L14.7274 63.672C14.7274 63.672 30.1848 53.9362 49.2702 64.8193Z"
          fill="url(#paint12_linear_4_291)"/>
    <path d="M14.8049 63.6721C14.8049 63.6721 26.6344 57.8895 40.6189 68.85C55.4562 80.4927 58.774 109.158 49.2391 117.281C39.7042 125.405 12.4638 87.4535 12.4638 87.4535V68.2144C12.7436 66.4906 13.5633 64.9002 14.8049 63.6721Z"
          fill="url(#paint13_linear_4_291)"/>
    <path d="M12.6658 105.7C17.317 113.25 23.2085 118.661 29.255 121.203L30.9139 121.839C33.1691 122.638 35.5657 122.959 37.9517 122.783C40.3376 122.607 42.661 121.937 44.7744 120.816C58.976 113.235 52.759 90.8641 46.3248 79.2834C38.914 65.9199 23.5806 62.0287 14.4178 66.8811C3.67356 72.7412 3.48751 90.8951 12.6658 105.7Z"
          fill="url(#paint14_linear_4_291)"/>
    <path style="mix-blend-mode:screen" opacity="0.5"
          d="M137.1 52.8509C136.402 55.9515 120.046 54.1377 105.565 61.455C91.0845 68.7724 80.3558 89.9029 67.3325 92.8175C56.9914 95.1274 56.3092 54.9903 79.9992 42.2314C103.689 29.4725 137.767 49.7659 137.1 52.8509Z"
          fill="url(#paint15_linear_4_291)"/>
    <path style="mix-blend-mode:screen" opacity="0.5"
          d="M159.86 98.5846C147.388 100.4 135.308 104.294 124.124 110.103C105.627 119.715 103.302 122.971 104.356 124.645C105.41 126.319 120.914 124.645 137.922 115.901C154.93 107.158 159.86 98.5846 159.86 98.5846Z"
          fill="url(#paint16_linear_4_291)"/>
    <path style="mix-blend-mode:screen" opacity="0.5"
          d="M172.666 86.7559C172.666 86.7559 169.395 72.3847 149.658 57.8584C149.658 57.8584 145.844 55.843 145.007 57.4088C144.17 58.9746 161.922 68.1834 172.666 86.7559Z"
          fill="url(#paint17_linear_4_291)"/>
    <path style="mix-blend-mode:screen" opacity="0.72"
          d="M50.5259 97.4219C50.5259 97.4219 53.9833 111.281 45.3321 117.855C36.6809 124.428 26.0917 120.397 19.8282 111.39C19.8282 111.39 26.1383 118.816 37.9832 111.793C49.8282 104.77 50.5259 97.4219 50.5259 97.4219Z"
          fill="url(#paint18_linear_4_291)"/>
    <path style="mix-blend-mode:screen" opacity="0.72"
          d="M39.2083 73.0823C40.03 75.5937 20.2005 77.2526 14.8051 80.1671C9.40978 83.0817 9.65784 91.0191 8.60357 91.1587C7.54931 91.2982 3.84386 74.1055 13.9524 68.8965C24.061 63.6875 38.6347 71.3304 39.2083 73.0823Z"
          fill="url(#paint19_linear_4_291)"/>
    <path d="M139.813 80.8182C139.813 80.8182 121.891 90.6936 110.867 92.0424C110.867 92.0424 122.046 107.018 133.565 102.569C145.085 98.1195 139.813 80.8182 139.813 80.8182Z"
          fill="#6DEAE2"/>
    <path d="M94.3405 218.158C97.5808 243.413 110.821 255.365 136.201 257.226C161.147 259.086 178.837 233.46 173.628 201.059C170.294 180.378 165.876 161.898 156.325 149.791C150.856 142.71 142.998 137.861 134.217 136.148C126.666 134.598 119.984 138.101 114.31 144.613C99.5963 161.604 91.8599 198.687 94.3405 218.158Z"
          fill="url(#paint20_linear_4_291)"/>
    <path style="mix-blend-mode:multiply" opacity="0.3"
          d="M132 163.48C132 163.48 116.589 189.277 116.496 202.237C116.232 246.281 136.232 257.257 136.232 257.257C136.232 257.257 118.372 255.893 110.93 249.319C102.806 242.142 92.325 229.166 94.139 201.989C95.6119 180.61 106.046 157.527 106.046 157.527L132 163.48Z"
          fill="url(#paint21_linear_4_291)"/>
    <path d="M174.449 201.446C174.449 201.446 171.752 182.347 158.31 181.137C142.186 179.711 129.209 202.454 128.744 218.624C128.279 234.793 130.635 250.172 145.798 252.172C145.814 252.172 174.418 253.862 174.449 201.446Z"
          fill="url(#paint22_linear_4_291)"/>
    <path d="M174.077 203.725C174.077 203.725 171.395 184.61 157.953 183.416C141.829 181.99 128.852 204.733 128.387 220.887C127.922 237.041 130.279 252.451 145.441 254.435C145.457 254.435 174.046 256.172 174.077 203.725Z"
          fill="url(#paint23_radial_4_291)"/>
    <path style="mix-blend-mode:multiply" opacity="0.5"
          d="M114.557 144.396C114.557 144.396 139.906 156.612 150.061 156.364C159.922 156.147 156.774 149.961 156.588 149.605C151.111 142.526 143.249 137.678 134.464 135.962C126.914 134.35 120.216 137.884 114.557 144.396Z"
          fill="url(#paint24_linear_4_291)"/>
    <path style="mix-blend-mode:screen" opacity="0.72"
          d="M172.527 201.911C170.031 206.872 163.054 199.617 153.488 200.222C143.922 200.826 138.263 207.027 135.705 204.966C133.147 202.904 143.364 184.812 157.922 185.416C169.565 185.788 173.364 200.16 172.527 201.911Z"
          fill="url(#paint25_linear_4_291)"/>
    <path style="mix-blend-mode:screen" opacity="0.72"
          d="M157.813 247.63C156.386 249.11 154.673 250.285 152.778 251.084C150.884 251.884 148.846 252.291 146.79 252.28C140.216 252.017 138.418 247.63 138.418 247.63C140.876 246.755 143.572 246.821 145.984 247.816C149.802 249.291 154.044 249.225 157.813 247.63Z"
          fill="url(#paint26_linear_4_291)"/>
    <path d="M130.046 161.232C131.596 161.402 132.914 176.471 131.596 176.859C130.278 177.246 128.945 173.944 128.17 168.983C127.394 164.022 128.573 161.061 130.046 161.232Z"
          fill="#4890A7"/>
    <path d="M119.658 168.689C118.015 176.921 113.457 186.036 109.581 189.912C109.136 190.488 108.568 190.958 107.919 191.288C107.27 191.617 106.556 191.799 105.829 191.819C101.643 191.199 99.1156 179.525 104.821 165.278C109.472 153.542 115.782 148.953 118.123 149.775C119.193 150.163 120.356 151.775 120.744 155.372C121.04 159.84 120.674 164.327 119.658 168.689Z"
          fill="url(#paint27_linear_4_291)"/>
    <path d="M119.658 168.689C118.015 176.921 113.457 186.036 109.581 189.912C109.581 189.912 104.092 162.55 120.744 155.356C121.042 159.83 120.676 164.322 119.658 168.689Z"
          fill="#4067A2"/>
    <path style="mix-blend-mode:multiply" opacity="0.5"
          d="M112.635 186.982C112.635 186.982 133.209 195.865 151.085 191.85C168.961 187.835 168.403 175.743 168.403 175.743L167.1 171.34L112.635 186.982Z"
          fill="url(#paint28_linear_4_291)"/>
    <path d="M123.813 237.801C123.813 237.801 118.403 282.527 106.93 286.077C106.647 286.168 106.356 286.231 106.061 286.263C96.9451 287.333 86.449 242.529 87.9839 226.871C88.0295 225.261 88.4396 223.683 89.1835 222.254C89.9274 220.825 90.9855 219.584 92.2784 218.624C100.433 213.074 117.643 221.337 123.813 237.801Z"
          fill="url(#paint29_linear_4_291)"/>
    <path d="M203.953 147.031C157.348 186.254 112.65 186.936 112.65 186.936C107.549 177.231 109.829 154.256 114.976 151.015C115.202 150.853 115.462 150.742 115.736 150.69C144.681 144.086 173.472 135.187 188.712 130.133H188.837C194.356 128.319 198.139 127.032 199.348 126.614L199.829 126.443L199.999 126.521C200.739 126.765 201.401 127.198 201.922 127.777C206.325 132.474 204.092 146.101 203.953 147.031Z"
          fill="url(#paint30_linear_4_291)"/>
    <path d="M199.829 126.443C199.829 126.443 190.216 134.086 189.627 143.342C189.038 152.597 200.046 150.752 203.937 147.078C203.937 147.078 209.875 129.451 199.829 126.443Z"
          fill="url(#paint31_linear_4_291)"/>
    <path d="M322 105.576C322 105.576 321.457 106.786 320.45 108.677C314.248 120.025 302.233 131.699 301.643 132.257C263.256 148.38 220.883 156.333 220.883 156.333C200.992 120.335 191.721 76.0122 191.255 73.7178V73.6248C245.085 43.1771 294.992 33.0536 296.543 32.7591L296.667 32.9761C298.969 36.8427 301.014 40.8563 302.791 44.9909L302.868 45.1614C308.427 58.51 313.124 72.2014 316.93 86.1511C319.86 96.5071 321.69 104.259 321.969 105.406C321.974 105.463 321.985 105.52 322 105.576Z"
          fill="url(#paint32_linear_4_291)"/>
    <path d="M322 105.576C322 105.576 321.457 106.786 320.449 108.677C317.488 114.475 310.449 126.722 301.643 132.257C301.643 132.257 289.891 81.7948 276.961 48.6496L296.511 32.7591L296.635 32.9761C297.193 33.9838 299.597 38.2936 302.759 44.9909L302.837 45.1614C308.592 57.3683 313.342 70.0245 317.038 83.004C319.142 90.3607 320.778 97.8428 321.938 105.406C321.953 105.464 321.974 105.521 322 105.576Z"
          fill="url(#paint33_linear_4_291)"/>
    <path d="M191.271 73.6714C191.271 73.6714 242.155 54.0292 277.007 48.6807L296.604 32.7902C296.604 32.7902 224.186 46.5723 191.271 73.6714Z"
          fill="url(#paint34_linear_4_291)"/>
    <path d="M135.86 69.9042C133.209 69.7802 132.077 57.1917 136.79 54.9128C141.503 52.6339 151.131 58.7266 151.55 63.2689C151.736 65.2843 146.418 64.8192 144.108 66.0129C141.24 67.5167 138.31 70.0127 135.86 69.9042Z"
          fill="url(#paint35_linear_4_291)"/>
    <path style="mix-blend-mode:multiply" opacity="0.5"
          d="M281.38 126.443L284.806 128.102L297.395 115.173L308.884 109.328L303.023 106.01L264.434 80.8182L252.884 90.2905L281.38 126.443Z"
          fill="url(#paint36_linear_4_291)"/>
    <path d="M102.077 81.9654C104.341 77.9501 81.4569 69.3925 73.0382 76.6324C64.6196 83.8722 68.7901 94.1041 72.5886 96.4916C74.7902 97.8558 80.139 91.3911 87.7825 88.213C94.8212 85.252 100.852 84.1668 102.077 81.9654Z"
          fill="url(#paint37_linear_4_291)"/>
    <path d="M262.79 145.961C262.79 145.961 233.767 106.832 227.41 61.1295C227.41 61.1295 238.713 53.378 258.093 42.526L261.72 41.4408L235.519 58.649C235.519 58.649 240.93 98.6 266.294 145.465L262.79 145.961Z"
          fill="url(#paint38_radial_4_291)"/>
    <path style="mix-blend-mode:multiply" opacity="0.3"
          d="M123.813 237.801C123.813 237.801 118.403 282.527 106.93 286.077C116.697 277.426 122.806 242.669 106.93 222.809C102.48 217.228 95.1157 218.159 92.2785 218.624C100.434 213.074 117.643 221.337 123.813 237.801Z"
          fill="url(#paint39_linear_4_291)"/>
    <path style="mix-blend-mode:multiply" opacity="0.5"
          d="M301.643 132.303C263.256 148.427 220.883 156.38 220.883 156.38C200.992 120.382 191.721 76.0589 191.255 73.7645C191.814 75.7333 200.837 107.235 210.372 111.375C220.217 115.653 239.038 113.359 239.038 113.359C249.414 120.712 261.087 126.036 273.442 129.048C293.023 133.42 301.643 132.303 301.643 132.303Z"
          fill="url(#paint40_linear_4_291)"/>
    <path style="mix-blend-mode:multiply" opacity="0.3"
          d="M203.953 147.031C157.348 186.253 112.65 186.936 112.65 186.936C107.549 177.231 109.829 154.255 114.976 151.015L115.736 150.69C115.317 151.341 105.518 166.611 114.805 176.006C124.092 185.401 173.72 163.929 182.263 148.705C190.806 133.482 187.922 130.396 187.922 130.396L188.728 130.117H188.852L199.364 126.598L199.844 126.428L200.015 126.505C200.697 126.856 201.342 127.277 201.937 127.761C204.899 130.179 209.348 135.931 203.953 147.031Z"
          fill="url(#paint41_linear_4_291)"/>
    <path d="M194.093 138.985C192.79 148.566 208.589 152.178 219.752 145.775C228.062 141.209 234.561 133.939 238.17 125.172C240.713 119.203 237.193 109.793 234.837 108.429C232.48 107.065 209.891 115.7 206.046 117.638C194.093 123.653 194.852 133.296 194.093 138.985Z"
          fill="url(#paint42_linear_4_291)"/>
    <path d="M195.209 130.598C195.209 130.598 223.968 123.73 235.519 108.894C235.519 108.894 235.023 106.832 230.077 108.258L204.883 117.467C204.883 117.467 195.581 124.397 195.209 130.598Z"
          fill="url(#paint43_linear_4_291)"/>
    <path d="M196.278 128.862C196.444 124.789 197.315 120.777 198.852 117.002C202.009 110.29 207.326 104.832 213.953 101.499C215.618 103.133 216.78 105.209 217.302 107.483C217.891 110.863 210.371 123.684 210.371 123.684C210.371 123.684 203.271 129.048 196.278 128.862Z"
          fill="url(#paint44_linear_4_291)"/>
    <path style="mix-blend-mode:multiply" opacity="0.5"
          d="M215.349 114.118L226.077 117.498C221.236 120.449 215.923 122.546 210.372 123.699L215.349 114.118Z"
          fill="url(#paint45_linear_4_291)"/>
    <path d="M273.224 74.462L262.077 77.1285L252.217 87.1899L249.209 99.0186L279.224 128.474L304.728 104.398L273.224 74.462ZM265.472 91.6702C264.85 92.3099 264.051 92.7504 263.178 92.936C262.305 93.1216 261.396 93.0439 260.567 92.7129C259.738 92.3818 259.025 91.8122 258.52 91.0762C258.015 90.3401 257.739 89.4708 257.729 88.5781C257.718 87.6854 257.972 86.8096 258.459 86.0615C258.946 85.3134 259.644 84.7266 260.465 84.3755C261.286 84.0244 262.193 83.9246 263.07 84.0889C263.948 84.2532 264.757 84.6742 265.395 85.2985C266.249 86.1339 266.737 87.2739 266.751 88.4683C266.766 89.6628 266.306 90.8143 265.472 91.6702Z"
          fill="url(#paint46_linear_4_291)"/>
    <path d="M235.519 58.6335C235.519 58.6335 249.597 79.2214 257.938 87.1899L260.434 84.3684C260.434 84.3684 248.031 77.4541 236.697 58.2925L243.891 53.192C243.891 53.192 235.411 57.8429 235.519 58.6335Z"
          fill="url(#paint47_radial_4_291)"/>
    <path d="M105.999 242.297C104.309 241.925 103.906 256.993 105.999 258.358C108.092 259.722 108.666 242.886 105.999 242.297Z"
          fill="#4890A7"/>
    <path d="M122.945 156.705C123.239 158.627 135.348 156.426 135.348 153.93C135.348 151.434 122.65 154.782 122.945 156.705Z"
          fill="#4890A7"/>
    <path d="M137.487 153.046C137.115 152.225 141.968 150.922 142.697 151.496C143.425 152.07 141.596 153.263 140.418 153.697C139.922 153.907 139.374 153.956 138.848 153.84C138.323 153.723 137.848 153.446 137.487 153.046Z"
          fill="#4890A7"/>
    <path d="M202.356 115.994C200.093 116.258 204.294 109.328 205.674 109.328C207.054 109.328 204.015 115.793 202.356 115.994Z"
          fill="#4890A7"/>
    <path d="M176.589 237.057C175.581 237.444 178.465 242.839 180.108 241.708C181.751 240.576 179.286 236.018 176.589 237.057Z"
          fill="#4890A7"/>
    <path d="M23.6426 106.026C23.6426 106.026 31.038 105.158 33.8132 114.987C33.8132 114.987 32.8675 136.691 46.5574 147.543C58.2009 156.844 86.6661 130.49 86.6661 130.49L87.8444 135.605C87.8444 135.605 65.7048 157.837 51.4101 159.139C51.4101 159.139 41.5651 159.232 33.5341 140.783C28.7169 129.685 25.3908 117.998 23.6426 106.026Z"
          fill="url(#paint48_linear_4_291)"/>
    <path d="M86.4023 132.722C86.2163 138.287 95.1621 136.846 100.573 133.295C106.65 129.311 114.744 118.955 109.519 113.839C104.294 108.723 86.8674 119.746 86.4023 132.722Z"
          fill="url(#paint49_linear_4_291)"/>
    <path d="M87.2703 133.016C87.8594 134.071 107.953 117.917 105.518 114.01C103.084 110.103 82.7432 124.831 87.2703 133.016Z"
          fill="url(#paint50_linear_4_291)"/>
    <path d="M27.2235 119.606C27.2235 119.606 32.898 140.318 34.3244 140.21C35.7507 140.101 29.084 119.746 27.2235 119.606Z"
          fill="url(#paint51_linear_4_291)"/>
    <path style="mix-blend-mode:multiply" opacity="0.3"
          d="M322 105.576C322 105.576 321.457 106.786 320.449 108.677C317.488 114.475 310.449 126.722 301.643 132.257C302.077 131.466 315.457 107.235 316.914 86.1512C317.007 85.097 317.038 84.0428 317.054 83.0506C319.157 90.4072 320.793 97.8894 321.953 105.452C321.966 105.495 321.981 105.536 322 105.576Z"
          fill="url(#paint52_linear_4_291)"/>
    <path style="mix-blend-mode:screen" opacity="0.72"
          d="M191.271 73.7644C191.271 73.7644 249.751 51.1767 268.79 45.3011C287.829 39.4255 296.604 32.7902 296.604 32.7902L277.007 48.6807C277.007 48.6807 223.503 59.0056 191.271 73.7644Z"
          fill="url(#paint53_linear_4_291)"/>
    <defs>
        <radialGradient id="paint0_radial_4_291" cx="0" cy="0" r="1" gradientUnits="userSpaceOnUse"
                        gradientTransform="translate(139.984 307.065) scale(63.2405 13.912)">
            <stop stop-color="#9DCEEA"/>
            <stop offset="0.39" stop-color="#A9D9F3"/>
            <stop offset="1" stop-color="white"/>
        </radialGradient>
        <linearGradient id="paint1_linear_4_291" x1="169.689" y1="258.916" x2="177.983" y2="228.065"
                        gradientUnits="userSpaceOnUse">
            <stop stop-color="#C1F1F7"/>
            <stop offset="1" stop-color="#DCF1F7"/>
        </linearGradient>
        <linearGradient id="paint2_linear_4_291" x1="168.108" y1="261.706" x2="168.108" y2="228.142"
                        gradientUnits="userSpaceOnUse">
            <stop stop-color="#68A2C2"/>
            <stop offset="1" stop-color="#CCEDFF"/>
        </linearGradient>
        <linearGradient id="paint3_linear_4_291" x1="169.193" y1="167.976" x2="171.829" y2="96.29"
                        gradientUnits="userSpaceOnUse">
            <stop stop-color="#9DDCEA"/>
            <stop offset="1" stop-color="#8CD7EF"/>
        </linearGradient>
        <linearGradient id="paint4_linear_4_291" x1="138.906" y1="66.2088" x2="117.84" y2="32.4205"
                        gradientUnits="userSpaceOnUse">
            <stop stop-color="#45FFCD"/>
            <stop offset="1" stop-color="#22E0FF"/>
        </linearGradient>
        <linearGradient id="paint5_linear_4_291" x1="120.552" y1="57.9063" x2="102.567" y2="29.0598"
                        gradientUnits="userSpaceOnUse">
            <stop stop-color="#ACC9F4"/>
            <stop offset="1" stop-color="#D1E6F5"/>
        </linearGradient>
        <linearGradient id="paint6_linear_4_291" x1="109782" y1="-2585.96" x2="103076" y2="-11036.9"
                        gradientUnits="userSpaceOnUse">
            <stop stop-color="#C1F7F4"/>
            <stop offset="1" stop-color="#DCF1F7"/>
        </linearGradient>
        <linearGradient id="paint7_linear_4_291" x1="163.989" y1="118.466" x2="74.8934" y2="174.023"
                        gradientUnits="userSpaceOnUse">
            <stop stop-color="#79DCEA"/>
            <stop offset="1" stop-color="#8CD1EF"/>
        </linearGradient>
        <linearGradient id="paint8_linear_4_291" x1="96376.4" y1="-20947.3" x2="94168.4" y2="-24488.8"
                        gradientUnits="userSpaceOnUse">
            <stop stop-color="#6881C2"/>
            <stop offset="1" stop-color="#CCFFFF"/>
        </linearGradient>
        <linearGradient id="paint9_linear_4_291" x1="125.382" y1="155.787" x2="112.532" y2="135.176"
                        gradientUnits="userSpaceOnUse">
            <stop stop-color="#8DDAE5"/>
            <stop offset="1" stop-color="#5C7CBB"/>
        </linearGradient>
        <linearGradient id="paint10_linear_4_291" x1="116.084" y1="150.198" x2="107.802" y2="136.636"
                        gradientUnits="userSpaceOnUse">
            <stop stop-color="#3696CC"/>
            <stop offset="1" stop-color="#4A6D96"/>
        </linearGradient>
        <linearGradient id="paint11_linear_4_291" x1="135.408" y1="122.615" x2="84.1795" y2="40.4508"
                        gradientUnits="userSpaceOnUse">
            <stop stop-color="#06B2BD"/>
            <stop offset="1" stop-color="#1A1F77"/>
        </linearGradient>
        <linearGradient id="paint12_linear_4_291" x1="34504.1" y1="7251.48" x2="33545.6" y2="4775.17"
                        gradientUnits="userSpaceOnUse">
            <stop stop-color="#ACE7F4"/>
            <stop offset="1" stop-color="#D1F5F5"/>
        </linearGradient>
        <linearGradient id="paint13_linear_4_291" x1="31546.5" y1="6062.44" x2="30727.9" y2="3947.57"
                        gradientUnits="userSpaceOnUse">
            <stop stop-color="#9DB3EA"/>
            <stop offset="1" stop-color="#8CCBEF"/>
        </linearGradient>
        <linearGradient id="paint14_linear_4_291" x1="34886.6" y1="5384.34" x2="34060.2" y2="3249.47"
                        gradientUnits="userSpaceOnUse">
            <stop stop-color="#45FFCD"/>
            <stop offset="1" stop-color="#22E0FF"/>
        </linearGradient>
        <linearGradient id="paint15_linear_4_291" x1="129.115" y1="37.7984" x2="58.5085" y2="81.8267"
                        gradientUnits="userSpaceOnUse">
            <stop/>
            <stop offset="1" stop-color="#6A9BFF"/>
        </linearGradient>
        <linearGradient id="paint16_linear_4_291" x1="-38782.8" y1="11017.1" x2="-36594.9" y2="11017.1"
                        gradientUnits="userSpaceOnUse">
            <stop/>
            <stop offset="1" stop-color="#6A9BFF"/>
        </linearGradient>
        <linearGradient id="paint17_linear_4_291" x1="-19424.9" y1="12329.2" x2="-19424.9" y2="11563"
                        gradientUnits="userSpaceOnUse">
            <stop/>
            <stop offset="1" stop-color="#6A9BFF"/>
        </linearGradient>
        <linearGradient id="paint18_linear_4_291" x1="38.437" y1="113.399" x2="31.9801" y2="96.717"
                        gradientUnits="userSpaceOnUse">
            <stop stop-color="#D4E2FF"/>
            <stop offset="1"/>
        </linearGradient>
        <linearGradient id="paint19_linear_4_291" x1="34.9666" y1="63.2337" x2="2.2945" y2="75.8818"
                        gradientUnits="userSpaceOnUse">
            <stop/>
            <stop offset="1" stop-color="#D4E2FF"/>
        </linearGradient>
        <linearGradient id="paint20_linear_4_291" x1="56503.9" y1="32822.9" x2="55582" y2="23371.7"
                        gradientUnits="userSpaceOnUse">
            <stop stop-color="#C1EDF7"/>
            <stop offset="1" stop-color="#DCF2F7"/>
        </linearGradient>
        <linearGradient id="paint21_linear_4_291" x1="27668" y1="25290.4" x2="28227.6" y2="19072.2"
                        gradientUnits="userSpaceOnUse">
            <stop stop-color="#0F8CB0"/>
            <stop offset="1" stop-color="#C5F2FF"/>
        </linearGradient>
        <linearGradient id="paint22_linear_4_291" x1="28961.3" y1="17113.1" x2="27648.6" y2="16995"
                        gradientUnits="userSpaceOnUse">
            <stop stop-color="#9DCEEA"/>
            <stop offset="1" stop-color="#8CCBEF"/>
        </linearGradient>
        <radialGradient id="paint23_radial_4_291" cx="0" cy="0" r="1" gradientUnits="userSpaceOnUse"
                        gradientTransform="translate(28156.9 18289) rotate(-174.668) scale(995.786 2062.78)">
            <stop stop-color="#45FFCD"/>
            <stop offset="1" stop-color="#22E0FF"/>
        </radialGradient>
        <linearGradient id="paint24_linear_4_291" x1="29996.3" y1="6223.37" x2="30019.4" y2="5965.95"
                        gradientUnits="userSpaceOnUse">
            <stop stop-color="#8DC5E5"/>
            <stop offset="1" stop-color="#5CA4BB"/>
        </linearGradient>
        <linearGradient id="paint25_linear_4_291" x1="24059.1" y1="6198.39" x2="23170.6" y2="6118.42"
                        gradientUnits="userSpaceOnUse">
            <stop/>
            <stop offset="1" stop-color="#D4E2FF"/>
        </linearGradient>
        <linearGradient id="paint26_linear_4_291" x1="11771.3" y1="2573.57" x2="11773.1" y2="2554.32"
                        gradientUnits="userSpaceOnUse">
            <stop stop-color="#D4E2FF"/>
            <stop offset="1"/>
        </linearGradient>
        <linearGradient id="paint27_linear_4_291" x1="3678.37" y1="8971.86" x2="3459.01" y2="8962.83"
                        gradientUnits="userSpaceOnUse">
            <stop stop-color="#79C1EA"/>
            <stop offset="1" stop-color="#8CCBEF"/>
        </linearGradient>
        <linearGradient id="paint28_linear_4_291" x1="11170.1" y1="4981.41" x2="11170.1" y2="4681.83"
                        gradientUnits="userSpaceOnUse">
            <stop stop-color="#8DE5DA"/>
            <stop offset="1" stop-color="#5CAABB"/>
        </linearGradient>
        <linearGradient id="paint29_linear_4_291" x1="6123.14" y1="19733.9" x2="7368.13" y2="17331.3"
                        gradientUnits="userSpaceOnUse">
            <stop stop-color="#C1EDF7"/>
            <stop offset="1" stop-color="#DCF5F7"/>
        </linearGradient>
        <linearGradient id="paint30_linear_4_291" x1="19251.5" y1="13746.3" x2="19796.8" y2="10563.1"
                        gradientUnits="userSpaceOnUse">
            <stop stop-color="#C1F7F7"/>
            <stop offset="1" stop-color="#DCF1F7"/>
        </linearGradient>
        <linearGradient id="paint31_linear_4_291" x1="4051.26" y1="4580.45" x2="3890.47" y2="4570.79"
                        gradientUnits="userSpaceOnUse">
            <stop stop-color="#79D6EA"/>
            <stop offset="1" stop-color="#8CDDEF"/>
        </linearGradient>
        <linearGradient id="paint32_linear_4_291" x1="242.48" y1="160.674" x2="269.02" y2="27.3014"
                        gradientUnits="userSpaceOnUse">
            <stop stop-color="#3DE3BB"/>
            <stop offset="1" stop-color="#63D4DB"/>
        </linearGradient>
        <linearGradient id="paint33_linear_4_291" x1="310.217" y1="130.598" x2="290.979" y2="33.8903"
                        gradientUnits="userSpaceOnUse">
            <stop stop-color="#42EAE0"/>
            <stop offset="1" stop-color="#11FED3"/>
        </linearGradient>
        <linearGradient id="paint34_linear_4_291" x1="245.798" y1="62.8039" x2="241.984" y2="43.6422"
                        gradientUnits="userSpaceOnUse">
            <stop stop-color="#8AEED6"/>
            <stop offset="1" stop-color="#6DFF96"/>
            <stop offset="1" stop-color="#6DFFCA"/>
        </linearGradient>
        <linearGradient id="paint35_linear_4_291" x1="3734.8" y1="2268.22" x2="3709.33" y2="2122.22"
                        gradientUnits="userSpaceOnUse">
            <stop stop-color="#45FFCD"/>
            <stop offset="1" stop-color="#22E0FF"/>
        </linearGradient>
        <linearGradient id="paint36_linear_4_291" x1="16425.7" y1="8657.65" x2="16425.7" y2="7215.49"
                        gradientUnits="userSpaceOnUse">
            <stop stop-color="#6897C2"/>
            <stop offset="1" stop-color="#CCEDFF"/>
        </linearGradient>
        <linearGradient id="paint37_linear_4_291" x1="5653.49" y1="3715.8" x2="5611.36" y2="3405.28"
                        gradientUnits="userSpaceOnUse">
            <stop stop-color="#45FFCD"/>
            <stop offset="1" stop-color="#22E0FF"/>
        </linearGradient>
        <radialGradient id="paint38_radial_4_291" cx="0" cy="0" r="1" gradientUnits="userSpaceOnUse"
                        gradientTransform="translate(10603.6 16681.1) scale(988.816 2657.96)">
            <stop stop-color="#45FFCD"/>
            <stop offset="1" stop-color="#22E0FF"/>
        </radialGradient>
        <linearGradient id="paint39_linear_4_291" x1="5684.06" y1="19813.3" x2="5684.06" y2="16726.7"
                        gradientUnits="userSpaceOnUse">
            <stop stop-color="#6897C2"/>
            <stop offset="1" stop-color="#CCEDFF"/>
        </linearGradient>
        <linearGradient id="paint40_linear_4_291" x1="28823.7" y1="16718.2" x2="29419.2" y2="12718.8"
                        gradientUnits="userSpaceOnUse">
            <stop stop-color="#688CC2"/>
            <stop offset="1" stop-color="#CCEDFF"/>
        </linearGradient>
        <linearGradient id="paint41_linear_4_291" x1="20382.1" y1="13400" x2="20382.1" y2="11037.2"
                        gradientUnits="userSpaceOnUse">
            <stop stop-color="#68C2BD"/>
            <stop offset="1" stop-color="#CCEDFF"/>
        </linearGradient>
        <linearGradient id="paint42_linear_4_291" x1="11160" y1="8083.97" x2="11453.2" y2="6875.53"
                        gradientUnits="userSpaceOnUse">
            <stop stop-color="#C1EAF7"/>
            <stop offset="1" stop-color="#DCF5F7"/>
        </linearGradient>
        <linearGradient id="paint43_linear_4_291" x1="10581.5" y1="3910.56" x2="10035.7" y2="4617.93"
                        gradientUnits="userSpaceOnUse">
            <stop stop-color="#9DD8EA"/>
            <stop offset="1" stop-color="#8CE3EF"/>
        </linearGradient>
        <linearGradient id="paint44_linear_4_291" x1="5220.93" y1="5111.65" x2="5397.68" y2="4605.87"
                        gradientUnits="userSpaceOnUse">
            <stop stop-color="#C1E4F7"/>
            <stop offset="1" stop-color="#DCF7F4"/>
        </linearGradient>
        <linearGradient id="paint45_linear_4_291" x1="4163.75" y1="1763.84" x2="4080" y2="1864.54"
                        gradientUnits="userSpaceOnUse">
            <stop stop-color="#8DE0E5"/>
            <stop offset="1" stop-color="#5CBBB5"/>
        </linearGradient>
        <linearGradient id="paint46_linear_4_291" x1="23751.1" y1="12328.2" x2="22507.4" y2="11119"
                        gradientUnits="userSpaceOnUse">
            <stop stop-color="#C1E7F7"/>
            <stop offset="1" stop-color="#DCF2F7"/>
        </linearGradient>
        <radialGradient id="paint47_radial_4_291" cx="0" cy="0" r="1" gradientUnits="userSpaceOnUse"
                        gradientTransform="translate(6902.48 4950.93) scale(239.441 326.72)">
            <stop stop-color="#45FFCD"/>
            <stop offset="1" stop-color="#22E0FF"/>
        </radialGradient>
        <linearGradient id="paint48_linear_4_291" x1="16420" y1="18344.7" x2="15224.6" y2="16558.2"
                        gradientUnits="userSpaceOnUse">
            <stop stop-color="#9DDCEA"/>
            <stop offset="1" stop-color="#8CD1EF"/>
        </linearGradient>
        <linearGradient id="paint49_linear_4_291" x1="102.423" y1="132.531" x2="94.6618" y2="116.756"
                        gradientUnits="userSpaceOnUse">
            <stop stop-color="#1ADDAE"/>
            <stop offset="1" stop-color="#11FEF0"/>
        </linearGradient>
        <linearGradient id="paint50_linear_4_291" x1="101.061" y1="123.418" x2="96.2785" y2="117.664"
                        gradientUnits="userSpaceOnUse">
            <stop stop-color="#3DE3C5"/>
            <stop offset="1" stop-color="#6DFFDC"/>
        </linearGradient>
        <linearGradient id="paint51_linear_4_291" x1="8319.22" y1="6165.85" x2="8126.76" y2="6036.28"
                        gradientUnits="userSpaceOnUse">
            <stop stop-color="#C1EDF7"/>
            <stop offset="1" stop-color="#DCE2F7"/>
        </linearGradient>
        <linearGradient id="paint52_linear_4_291" x1="6548.27" y1="9187.19" x2="7197.01" y2="7838.21"
                        gradientUnits="userSpaceOnUse">
            <stop stop-color="#6897C2"/>
            <stop offset="1" stop-color="#CCEDFF"/>
        </linearGradient>
        <linearGradient id="paint53_linear_4_291" x1="191.255" y1="53.2851" x2="296.558" y2="53.2851"
                        gradientUnits="userSpaceOnUse">
            <stop/>
            <stop offset="1" stop-color="#9295BB"/>
        </linearGradient>
    </defs>
</svg>
